/* XPM */
static char *_533850239432[] = {
/* columns rows colors chars-per-pixel */
"64 64 3 1 ",
"  c black",
". c #E6E6E6",
"X c white",
/* pixels */
"XXXXXXXXXXXXXXXXXXXXXXXXXXXXXXXXXXXXXXXXXXXXXXXXXXXXXXXXXXXXXXXX",
"XXXXXXXXXXXXXXXXXXXXXXXXXXXXXXXXXXXXXXXXXXXXXXXXXXXXXXXXXXXXXXXX",
"XXXXXXXXXXXXXXXXXXXXXXXXXXXXXXXXXXXXXXXXXXXXXXXXXXXXXXXXXXXXXXXX",
"XXXXXXXXXXXXXXXXXXXXXXXXXXXXXXXXXXXXXXXXXXXXXXXXXXXXXXXXXXXXXXXX",
"XXXXXXXXXXXXXXXXXXXXXXXXXXXXXXXXXXXXXXXXXXXXXXXXXXXXXXXXXXXXXXXX",
"XXXXXXXXXXXXXXXXXXXXXXXXXXXXXXXXXXXXXXXXXXXXXXXXXXXXXXXXXXXXXXXX",
"XXXXXXXXXXXXXXXXXXXXXXXXXXXXXXXXXXXXXXXXXXXXXXXXXXXXXXXXXXXXXXXX",
"XXXXXXXXXXXXXXXXXXXXXXXXXXXXXXXXXXXXXXXXXXXXXXXXXXXXXXXXXXXXXXXX",
"XXXXXXXXXXXXXXXXXXXXXXXXXXXXXXXXXXXXXXXXXXXXXXXXXXXXXXXXXXXXXXXX",
"XXXXXXXXXXXXXXXXXXXXXXXXXXXXXXXXXXXXXXXXXXXXXXXXXXXXXXXXXXXXXXXX",
"XXXXXXXXXXXXXXXXXXXXXXXXXXXXXXXXXXXXXXXXXXXXXXXXXXXXXXXXXXXXXXXX",
"XXXXXXXXXXXXXXXXXXXXXXXXXXXXXXXXXXXXXXXXXXXXXXXXXXXXXXXXXXXXXXXX",
"XXXXXXXXXXXXXXXXXXXXXXXXXXXXXXXXXXXXXXXXXXXXXXXXXXXXXXXXXXXXXXXX",
"XXXXXXXXXXXXXXXXXXXXXXXXXXXXXXXXXXXXXXXXXXXXXXXXXXXXXXXXXXXXXXXX",
"XXXXXXXXXXXXXXXXXXXXXXXXXXXXXXXXXXXXXXXXXXXXXXXXXXXXXXXXXXXXXXXX",
"XXXXXXXXXXXXXXXXXXXXXXXXXXXXXXXXXXXXXXXXXXXXXXXXXXXXXXXXXXXXXXXX",
"XXXXXXXXXXXXXXXXXXXXXXXXXXXXXXXXXXXXXXXXXXXXXXXXXXXXXXXXXXXXXXXX",
"XXXXXXXXXXXXXXXXXXX XXXXXXXXXXXXXXXXXXXXXXXXXXXXXXXXXXXXXXXXXXXX",
"XXXXXXXXXXXXXXXXXXX XXXXXXXXXXXXXXXXXXXXXXXXXXXXXXXXXXXXXXXXXXXX",
"XXXXXXXXXXXXXXXXXX  XXXXXXXXXXXXXXXXXXXXXXXXXXXXXXXXXXXXXXXXXXXX",
"XXXXXXXXXXXXXXXXXX  XXXXXXXXXXXXXXXXXXXXXXXXXXXXXXXXXXXXXXXXXXXX",
"XXXXXXXXXXXXXXXXXX   XXXXXXXXXXXXXXXXXXXXXXXXXXXXXXXXXXXXXXXXXXX",
"XXXXXXXXXXXXXXXXXX    XXXXXXXXXXXXXXXXXXXXXXXXXXXXXXXXXXXXXXXXXX",
"XXXXXXXXXXXXXXXXXX  .   XXXXXXXXXXXXXXXXXXXXXXXXXXXXXXXXXXXXXXXX",
"XXXXXXXXXXXXXXXXXX  .    XXXXXXXXXXXXXXXXXXXXXXXXXXXXXXXXXXXXXXX",
"XXXXXXXXXXXXXXXXX  ...   XXXXXXXXXXXXXXXXXXXXXXXXXXXXXXXXXXXXXXX",
"XXXXXXXXXXXXXXXXX  .....  XXXXXXXXXXXXXXXXXXXXXXXXXXXXXXXXXXXXXX",
"XXXXXXXXXXXXXXXX  ......   XXXXXXXXXXXXXXXXXXXXXXXXXXXXXXXXXXXXX",
"XXXXXXXXXXXXXXXX  ......    XXXXXXXXXXXXXXXXXXXXXXXXXXXXXXXXXXXX",
"XXXXXXXXXXXXXXX  ........    XXXXXXXXXXXXXXXX XXXXXXXXXXXXXXXXXX",
"XXXXXXXXXXXXXXX  .... ... .   XXXXXXXXXXXXXX   XXXXXXXXXXXXXXXXX",
"XXXXXXXXXXXXXX  ....... .  .   XXXXXXXXXXXX    XXXXXXXXXXXXXXXXX",
"XXXXXXXXXXXXXX  .......... ..  XXXXXXXXXXXX     XXXXXXXXXXXXXXXX",
"XXXXXXXXXXXXX  ...........  .  XXXXXXXXXXX   .   XXXXXXXXXXXXXXX",
"XXXXXXXXXXXX   .. ......... ..  XXXXXXXXX   ...  XXXXXXXXXXXXXXX",
"XXXXXXXXXXXX  ... ...  ..... .  XXXXXXXX    . ..  XXXXXXXXXXXXXX",
"XXXXXXXXXXX   .. .. .. ..... .. XXXXXXXX   ... .   XXXXXXXXXXXXX",
"XXXXXXXXXX  ...  .. ... .. .. .  XXXXXXX  .... ...  XXXXXXXXXXXX",
"XXXXXXXXX  .... ... . . ..  . .   XXXXX   ...... ..  XXXXXXXXXXX",
"XXXXXXX   .  .  ..... ..... ....  XXXX   ........ ..  XXXXXXXXXX",
"XXXXXX   . .    .. ..  ..... ...   X     ..... ..  .   XXXXXXXXX",
"XXXXXX     .    .. ..  ... . ...        .... . .... .   XXXXXXXX",
"XXXXX     ..   .. ...  . .. .....      ..... .........    XXXXXX",
"XXXX     .. .... .  .  . .  ......   ..  . ...... .. ..    XXXXX",
"XXXX    ..  .   .   . .  .   . ..  ...  .. .. .. . .. ..    XXXX",
"XXX    ..  ..  .      .  .   .. . ..   ............... ..    XXX",
"XXX   ..   .  ..      .  .     ..      .   .. ... ..... ..    XX",
"XX   ..   .. ..     ..   .      ..         ..  .. . ..........XX",
"X    .   ..  .     ..   ..       ..            .. ..  . ..     X",
"    . ....  ..    ..    .          .            .     .. ..    X",
"    .       .                                          .  .     ",
"    .                                                           ",
"    .                                                           ",
"                                                                ",
"                                                                ",
"                                                                ",
"                                                                ",
"                                                                ",
"                                                                ",
"                                                                ",
"                                                                ",
"                                                                ",
"                                                                ",
"                                                                "
};
