/* XPM */
static char *_533928052562[] = {
/* columns rows colors chars-per-pixel */
"64 64 7 1 ",
"  c #FB0207",
". c #21FF06",
"X c #FFFF0A",
"o c blue",
"O c #FC6FCF",
"+ c #21FFFF",
"@ c white",
/* pixels */
"+@@@@@@@@@@@@@@@@@@@@@@@@@@@@@@@@@@@@@@@@@@@@@@@@@@@@@@@@@@@@@@ ",
"@+@@@@@@@@@@@@@@@@@@@@@@@@@@@@@@@@@@@@@@@@@@@@@@@@@@@@@@@@@@@@ @",
"@@+@@@@@@@@@@@@@@@@@@@@@@@@@@@@@@@@@@@@@@@@@@@@@@@@@@@@@@@@@@ @@",
"@@@+@@@@@@@@@@@@@@@@@@@@@@@@@@@@@@@@@@@@@@@@@@@@@@@@@@@@@@@@ @@@",
"@@@@+@@@@@@@@@@@@@@@@@@@@@@@@@@@@@@@@@@@@@@@@@@@@@@@@@@@@@@ @@@@",
"@@@@@+@@@@@@@@@@@@@@@@@@@@@@@@@@@@@@@@@@@@@@@@@@@@@@@@@@@@ @@@@@",
"@@@@@@+@@@@@@@@@@@@@@@@@@@@@@@@@@@@@@@@@@@@@@@@@@@@@@@@@@ @@@@@@",
"@@@@@@@+@@@@@@@@@@@@@@@@@@@@@@@@@@@@@@@@@@@@@@@@@@@@@@@@ @@@@@@@",
"@@@@@@@@+@@@@@@@@@@@@@@@@@@@@@@@@@@@@@@@@@@@@@@@@@@@@@@ @@@@@@@@",
"@@@@@@@@@+@@@@@@@@@@@@@@@@@@@@@@@@@@@@@@@@@@@@@@@@@@@@ @@@@@@@@@",
"@@@@@@@@@@+@@@@@@@@@@@@@@@@@@@@@@@@@@@@@@@@@@@@@@@@@@ @@@@@@@@@@",
"@@@@@@@@@@@+@@@@@@@@@@@@@@@@@@@@@@@@@@@@@@@@@@@@@@@@ @@@@@@@@@@@",
"@@@@@@@@@@@@+@@@@@@@@@@@@@@@@@@@@@@@@@@@@@@@@@@@@@@ @@@@@@@@@@@@",
"@@@@@@@@@@@@@+@@@@@@@@@@@@@@@@@@@@@@@@@@@@@@@@@@@@ @@@@@@@@@@@@@",
"@@@@@@@@@@@@@@+@@@@@@@@@@@@@@@@@@@@@@@@@@@@@@@@@@ @@@@@@@@@@@@@@",
"@@@@@@@@@@@@@@@+@@@@@@@@@@@@@@@@@@@@@@@@@@@@@@@@ @@@@@@@@@@@@@@@",
"@@@@@@@@@@@@@@@@+@@@@@@@@@@@@@@@@@@@@@@@@@@@@@@ @@@@@@@@@@@@@@@@",
"@@@@@@@@@@@@@@@@@+@@@@@@@@@@@@@@@@@@@@@@@@@@@@ @@@@@@@@@@@@@@@@@",
"@@@@@@@@@@@@@@@@@@+@@@@@@@@@@@@@@@@@@@@@@@@@@ @@@@@@@@@@@@@@@@@@",
"@@@@@@@@@@@@@@@@@@@+@@@@@@@@@@@@@@@@@@@@@@@@ @@@@@@@@@@@@@@@@@@@",
"@@@@@@@@@@@@@@@@@@@@+@@@@@@@@@@@@@@@@@@@@@@ @@@@@@@@@@@@@@@@@@@@",
"@@@@@@@@@@@@@@@@@@@@@+@@@@@@@@@@@@@@@@@@@@ @@@@@@@@@@@@@@@@@@@@@",
"@@@@@@@@@@@@@@@@@@@@@@+@@@@@@@@@@@@@@@@@@ @@@@@@@@@@@@@@@@@@@@@@",
"@@@@@@@@@@@@@@@@@@@@@@@+@@@@@@@@@@@@@@@@ @@@@@@@@@@@@@@@@@@@@@@@",
"@@@@@@@@@@@@@@@@@@@@@@@@+@@@@@@@@@@@@@@ @@@@@@@@@@@@@@@@@@@@@@@@",
"@@@@@@@@@@@@@@@@@@@@@@@@@+@@@@@@@@@@@@ @@@@@@@@@@@@@@@@@@@@@@@@@",
"@@@@@@@@@@@@@@@@@@@@@@@@@@+@@@@@@@@@@ @@@@@@@@@@@@@@@@@@@@@@@@@@",
"@@@@@@@@@@@@@@@@@@@@@@@@@@@+@@@@@@@@ @@@@@@@@@@@@@@@@@@@@@@@@@@@",
"@@@@@@@@@@@@@@@@@@@@@@@@@@@@+@@@@@@ @@@@@@@@@@@@@@@@@@@@@@@@@@@@",
"@@@@@@@@@@@@@@@@@@@@@@@@@@@@@+@@@@ @@@@@@@@@@@@@@@@@@@@@@@@@@@@@",
"................................................................",
"................................................................",
"................................................................",
"................................................................",
"@o@@@@@@@@@@@@@@@@@@@@@@@@@@@ @@@@+@@@@@@@@@@@@@@@@@@@@@@@@@@@o@",
"@@o@@@@@@@@@@@@@@@@@@@@@@@@@ @@@@@@+@@@@@@@@@@@@@@@@@@@@@@@@@o@@",
"@@@o@@@@@@@@@@@@@@@@@@@@@@@ @@@@@@@@+@@@@@@@@@@@@@@@@@@@@@@@o@@@",
"@@@@o@@@@@@@@@@@@@@@@@@@@@ @@@@@@@@@@+@@@@@@@@@@@@@@@@@@@@@o@@@@",
"@@@@@o@@@@@@@@@@@@@@@@@@@ @@@@@@@@@@@@+@@@@@@@@@@@@@@@@@@@o@@@@@",
"@@@@@@o@@@@@@@@@@@@@@@@@ @@@@@@@@@@@@@@+@@@@@@@@@@@@@@@@@o@@@@@@",
"@@@@@@@o@@@@@@@@@@@@@@@ @@@@@@@@@@@@@@@@+@@@@@@@@@@@@@@@o@@@@@@@",
"@@@@@@@@o@@@@@@@@@@@@@ @@@@@@@@@@@@@@@@@@+@@@@@@@@@@@@@o@@@@@@@@",
"@@@@@@@@@o@@@@@@@@@@@ @@@@@@@@@@@@@@@@@@@@+@@@@@@@@@@@o@@@@@@@@@",
"@@@@@@@@@@o@@@@@@@@@ @@@@@@@@@@@@@@@@@@@@@@+@@@@@@@@@o@@@@@@@@@@",
"@@@@@@@@@@@o@@@@@@@ @@@@@@@@@@@@@@@@@@@@@@@@+@@@@@@@o@@@@@@@@@@@",
"@@@@@@@@@@@@o@@@@@ @@@@@@@@@@@@@@@@@@@@@@@@@@+@@@@@o@@@@@@@@@@@@",
"@@@@@@@@@@@@@o@@@ @@@@@@@@@@@@@@@@@@@@@@@@@@@@+@@@o@@@@@@@@@@@@@",
"XXXXXXXXXXXXXXXXXXXXXXXXXXXXXXXXXXXXXXXXXXXXXXXXXXXXXXXXXXXXXXXX",
"XXXXXXXXXXXXXXXXXXXXXXXXXXXXXXXXXXXXXXXXXXXXXXXXXXXXXXXXXXXXXXXX",
"XXXXXXXXXXXXXXXXXXXXXXXXXXXXXXXXXXXXXXXXXXXXXXXXXXXXXXXXXXXXXXXX",
"@@@@@@@@@@@@@ @@@o@@@@@@@@@@@@@@@@@@@@@@@@@@@@o@@@+@@@@@@@@@@@@@",
"@@@@@@@@@@@@ @@@@@o@@@@@@@@@@@@@@@@@@@@@@@@@@o@@@@@+@@@@@@@@@@@@",
"@@@@@@@@@@@ @@@@@@@o@@@@@@@@@@@@@@@@@@@@@@@@o@@@@@@@+@@@@@@@@@@@",
"@@@@@@@@@@ @@@@@@@@@o@@@@@@@@@@@@@@@@@@@@@@o@@@@@@@@@+@@@@@@@@@@",
"@@@@@@@@@ @@@@@@@@@@@o@@@@@@@@@@@@@@@@@@@@o@@@@@@@@@@@+@@@@@@@@@",
"@@@@@@@@ @@@@@@@@@@@@@o@@@@@@@@@@@@@@@@@@o@@@@@@@@@@@@@+@@@@@@@@",
"OOOOOOOOOOOOOOOOOOOOOOOOOOOOOOOOOOOOOOOOOOOOOOOOOOOOOOOOOOOOOOOO",
"@@@@@@ @@@@@@@@@@@@@@@@@o@@@@@@@@@@@@@@o@@@@@@@@@@@@@@@@@+@@@@@@",
"@@@@@ @@@@@@@@@@@@@@@@@@@o@@@@@@@@@@@@o@@@@@@@@@@@@@@@@@@@+@@@@@",
"@@@@ @@@@@@@@@@@@@@@@@@@@@o@@@@@@@@@@o@@@@@@@@@@@@@@@@@@@@@+@@@@",
"@@@ @@@@@@@@@@@@@@@@@@@@@@@o@@@@@@@@o@@@@@@@@@@@@@@@@@@@@@@@+@@@",
"@@ @@@@@@@@@@@@@@@@@@@@@@@@@o@@@@@@o@@@@@@@@@@@@@@@@@@@@@@@@@+@@",
"@ @@@@@@@@@@@@@@@@@@@@@@@@@@@o@@@@o@@@@@@@@@@@@@@@@@@@@@@@@@@@+@",
" @@@@@@@@@@@@@@@@@@@@@@@@@@@@@o@@o@@@@@@@@@@@@@@@@@@@@@@@@@@@@@+"
};
