/* XPM */
static char *_533851571591[] = {
/* columns rows colors chars-per-pixel */
"64 64 7 1 ",
"  c gray20",
". c #804003",
"X c #118002",
"o c #21FF06",
"O c #118040",
"+ c #808004",
"@ c white",
/* pixels */
"@@@@@@@@@@@@@@@@@@@@@@@@@@@@@@@@@@@@@@@@@@@@@@@@@@@@@@@@@@@@@@@@",
"@@@@@@@@@@@@@@@@@@@@@@@@@@@@@@@@@@@@@@@@@@@@@@@@@@@@@@@@@@@@@@@@",
"@@@@@@@@@@@@@@@@@@@@@@@@@@@@@@@@@@@@@@@@@@@@@@@@@@@@@@@@@@@@@@@@",
"@@@@@@@@@@@@@@@@@@@@@@@@@@@@@@@@@@@@@@@@@@@@@@@@@@@@@@@@@@@@@@@@",
"@@@@@@@@@@@@@@@@@@@@@@@@@@@@@@@@@@@@@@@@@@@@@@@@@@@@@@@@@@@@@@@@",
"@@@@@@@@@@@@@@@@@@@@@@@@@@@@@@@@@@@@@@@@@@@@@@@@@@@@@@@@@@@@@@@@",
"@@@@@@@@@@@@@@@@@@@@@@@@@@@@@@@@@@@@@@@@@@@@@@@@@@@@@@@@@@@@@@@@",
"@@@@@@@@@@@@@@@@@@@@@@@@@@@@@@@@@@@@@@@@@@@@@@@@@@@@@@@@@@@@@@@@",
"@@@@@@@@@@@@@@@@@@@@.o@@@@@@@@@@@@@@@@@@@@@@@@@@@@@@@@@@@@@@@@@@",
"@@@@@@@@@@@@@@@@@@@@.@@@@@@@@@@@@@@@@@@@@@@@@@@@@@@@@@@@@@@@@@@@",
"@@@@@@@@@@@@@@@@@@@..@@@@@@@@@@@@@@@@@@@@@@@@@@@@@@@@@@@@@@@@@@@",
"@@@@@@@@@@@@@@@@@@@.@@@@@@@@@@@@@@@@@@@@@@@@@@@@@@@@@@@@@@@@@@@@",
"@@@@@@@@@@@@@@@@@@@..@@@@@@@@@@@@@@@@@@@@@@@@@@@@@@@@@@@@@@@@@@@",
"@@@@@@@@@@@@@@@@@@@@.@@@@@@@@@@@@@@@@@@@@@@@@@@@@@@@@@@@@@@@@@@@",
"@@@@@@@@@@@@@@@@@@o@.@oo@@@@@@@@@@@@@@@@@@@@@@@@@@@@@@@@@@@@@@@@",
"@@@@@@@@@@@@@@@@@@@OOo@@@@@@@@@@@@@@@@@@@@@@@@@@@@@@@@@@@@@@@@@@",
"@@@@@@@@@@@@@@@@@@@ooo.oo@@o@@@@@@@@@@@@@@@@@@@@@@@@@@@@@@@@@@@@",
"@@@@@@@@@@@@@@@@@@@@oOoooXo@@@@@@@@@@@@@@@@@@@@@@@@@@@@@@@@@@@@@",
"@@@@@@@@@@@@@@@@@@@@@OO.o.oo@@@@@@@@@@@@@@@@@@@@@@@@@@@@@@@@@@@@",
"@@@@@@@@@@@@@@@@@@@@@Xoo.Xooo@o@@@@o@o@@@@@@@@@@@@@@@@@@@@@@@@@@",
"@@@@@@@@@@@@@@@@@@@@ooooo.ooX@o@@@@@.@@@@@@@@@@@@@@@@@@@@@@@@@@@",
"@@@@@@@@@@@@@@@@@@@@@o@o...oooo@@o@o.o@@@@@@@@@@@@@@@@@@@@@@@@@@",
"@@@@@@@@@@@@@@@@@@@..oo@o.o.oXo@oo@@.o@@@@@@@@@@@@@@@@@@@@@@@@@@",
"@@@@@@@@@@@@@@@@@@@o@@o.oo@..oooo@@o.@@@@@@@@@@@@@@@@@@@@@@@@@@@",
"@@@@@@@@@@@@@@@@@@@@@o@@.oXoo.@XX@o.@@@@@@@@@@@@@@@@@@@@@@@@@@@@",
"@@@@@@@@@@@@@@@@@@@@@@@@..oX..@o.o.oooo@@@@@@@@@@@@@@@@@@@@@@@@@",
"@@@@@@@@@@@@@@@@@@@@@@@XX.@oXX.oo@.@@@@@@@@@@@@@@@@@@@@@@@@@@@@@",
"@@@@@@@@@@@@@@@@@@@@@@@@X.ooo.oXoo.@o@@@@@@@@@@@@@@@@@@@@@@@@@@@",
"@@@@@@@@@@@@@@@@@@@@@@X@oo@Xo.o...o@@o@@@@@@@@@@@@@@@@@@@@@@@@@@",
"@@@@@@@@@@@@@@@@@@@@@..@ooX@.Xo.X@@o@@@@XoX@@o@@@@@@@@@@@@@@@@@@",
"@@@@@@@@@@@@@@@@@@@@@@..oooo.o.o.Xoo@oo@oooo.oo@@@@@@@@@@@@@@@@@",
"@@@@@@@@@@@@@@@@@@@@@@X.oooXXXX..o@ooooXoXoooooo@@@@@@@@@@@@@@@@",
"@@@@@@@@@@@@@@@@@@@@@@X@ooX.Xo..ooXooo.......@o@@@@@@@@@@@@@@@@@",
"@@@@@@@@@@@@@@@@@@@@@@Xo@XooX.XXoXoX...oooooo@o@@@@@@@@@@@@@@@@@",
"@@@@@@@@@@@@@@@@@@@@@@@@Xoo.XXX..o.ooo.Xooo@o@@@@@@@@@@@@@@@@@@@",
"@@@@@@@@@@@@@@@@@@@@oooXXXX..o.XX.ooXo@@@X@o@@@@@@@@@@@@@@@@@@@@",
"@@@@@@@@@@@@@@@@@@@@oXXXooXXXX.X.Xooooo@@@@@@@@@@@@@@@@@@@@@@@@@",
"@@@@@@@@@@@@@@@@@@@@oooXoooXXooXX@oooo@@@@@@@@@@@@@@@@@@@@@@@@@@",
"@@@@@@@@@@@@@@oo@@@@ooooXo@XoXX.ooo@o@@@@@@@@@@@@@@@@@@@@@@@@@@@",
"@@@@@@@@@@@@@@@@.ooooooXXoo.Xo.oXoo@@@@@@@@@@@@@@@@@@@@@@@@@@@@@",
"@@@@@@@@@@@@@@@o.ooooo.ooXoXoooooooX@@@@@@@@@@@@@@@@@@@@@@@@@@@@",
"@@@@@@@@@@@@oooo.ooo...ooo.oo.oXoX@o@@@@@@@@@@@@@@@@@@@@@@@@@@@@",
"@@@@@@@@@@@@@@@o...@@o.ooo.oo.XoXXX@@@@@@@@@@@@@@@@@@@@@@@@@@@@@",
"@@@@@@@@@@@@...o.@o@@@@@.oo..ooXXX@@@@@@@@@@@@@@@@@@@@@@@@@@@@@@",
"@@@@@@@@@@@@o@.@@oo@@@o@@@ooo.X.Xoo@@@@@@@@@@@@@@@@@@@@@@@@@@@@@",
"@@@@@@@@@@@@o@@o@@@@@@@@@@@o....o@@@@@@@@@@@@@@@@@@@@@@@@@@@@@@@",
"@@@@@@@@@@@@@@@@@@@@@@@@@@@@.o..o@@@@@@@@@@@@@@@@@@@@@@@@@@@@@@@",
"@@@@@@@@@@@@@@@@@@@@@@@@@@@@.oo..@@@@@@@@@@@@@@@@@@@@@@@@@@@@@@@",
"@@@@@@@@@@@@@@@@@@@@@@@@@@@@.....@@@@@@@@@@@@@@@@@@@@@@@@@@@@@@@",
"@@@@@@@@@@@@@@@@@@@@@@@@@@@@.....o@@@@@@@@@@@@@@@@@@@@@@@@@@@@@@",
"@@@@@@@@@@@@@@@@@@@@@@@@@@@@.....@@@@@@@@@@@@@@@@@@@@@@@@@@@@@@@",
"@@@@@@@@@@@@@@@@@@@@@@@@@@@@.....@@@@@@@@@@@@@@@@@@@@@@@@@@@@@@@",
"@@@@@@@@@@@@@@@@@@@@@@@@@@@@.....@@@@@@@@@@@@@@@@@@@@@@@@@@@@@@@",
"@@@@@@@@@@@@@@@@@@@@@@@@@@@@.....@@@@@@@@@@@@@@@@@@@@@@@@@@@@@@@",
"@@@@@@@@@@@@@@@@@@@@@@@@@@@@.....@@@@@@@@@@@@@@@@@@@@@@@@@@@@@@@",
"@@@@@@@@@@@@@@@@@@@@@@@@@@@@.....@@@@@@@@@@@@@@@@@@@@@@@@@@@@@@@",
"@@@@@@@@@@@@@@@@@@@@@@@@@@@@.....@@@@@@@@@@@@@@@@@@@@@@@@@@@@@@@",
"@@@@@@@@@@@@@@@@@@@+@@+@@@@@.....@@@@@@@@@@@@@@@@@@+@@@@@@@@@@@@",
"@@@.@@@.@@ @@@@@@@@@@@@++@@@.....@@@@@@@@@@@+@@@@@@@@@+..@@@+@+@",
"+@@.@@  @  @@ @@@@@@+@@+.+@+.+...@@@@@ .+@+@   + .  @+@... .@.@.",
"...@+  .   +@ @  @@.@. ..@..++..  @@@.@  + . . . .+.@ ...@.@@. +",
" .+.+@@      +  @+.. + @++ @.@@.@  ..+.+@... @@.. @@@..+..@.@.+.",
".@... .. +  ..@@ @ +. . +@..+ @. ..+ ++@  @ ..+.  @.@.. .+ .. +@",
".@@.. ..  .   + + @ . .+..  + ....+ .@  . .  . @  +. . @ @..+..@"
};
