/* XPM */
static char *_533929102805[] = {
/* columns rows colors chars-per-pixel */
"100 100 6 1 ",
"  c #FB0207",
". c #996633",
"X c #21FF06",
"o c #FFFF0A",
"O c blue",
"+ c #21FFFF",
/* pixels */
"                                                                                                    ",
"                                                                                                    ",
"                                                                                                    ",
"   OOOOOOOOOOOOOOOOOOOOOOOOOOOOOOOOOOOOOOOOOOOOOOOOOOOOOOOOOOOOOOOOOOOOOOOOOOOOOOOOOOOOOOOOOOOOOO   ",
"   OOOOOOOOOOOOOOOOOOOOOOOOOOOOOOOOOOOOOOOOOOOOOOOOOOOOOOOOOOOOOOOOOOOOOOOOOOOOOOOOOOOOOOOOOOOOOO   ",
"   OOOOOOOOOOOOOOOOOOOOOOOOOOOOOOOOOOOOOOOOOOOOOOOOOOOOOOOOOOOOOOOOOOOOOOOOOOOOOOOOOOOOOOOOOOOOOO   ",
"   OOOOOOOOOOOOOOOOOOOOOOOOOOOOOOOOOOOOOOOOOOOOOOOOOOOOOOOOOOOOOOOOOOOOOOOOOOOOOOOOOOOOOOOOOOOOOO   ",
"   OOOOOOOOOOOOOOOOOOOOOOOOOOOOOOOOOOOOOOOOOOOOOOOOOOOOOOOOOOOOOOOOOOOOOOOOOOOOOOOOOOOOOOOOOOOOOO   ",
"   OOOOOOOOOOOOOOOOOOOOOOOOOOOOOOOOOOOOOOOOOOOOOOOOOOOOOOOOOOOOOOOOOOOOOOOOOOOOOOOOOOOOOOOOOOOOOO   ",
"   OOOOOOOOOOOOOOOOOOOOOOOOOOOOOOOOOOOOOOOOOOOOOOOOOOOOOOOOOOOOOOOOOOOOOOOOOOOOOOOOOOOOOOOOOOOOOO   ",
"   OOOOOOOOOOOOOOOOOOOOOOOOOOOOOOOOOOOOOOOOOOOOOOOOOOOOOOOOOOOOOOOOOOOOOOOOOOOOOOOOOOOOOOOOOOOOOO   ",
"   OOOOOOOOOOOOOOOOOOOOOOOOOOOOOOOOOOOOOOOOOOOOOOOOOOOOOOOOOOOOOOOOOOOOOOOOOOOOOOOOOOOOOOOOOOOOOO   ",
"   OOOOOOOOOOOOOOOOOOOOOOOOOOOOOOOOOOOOOOOOOOOOOOOOOOOOOOOOOOOOOOOOOOOOOOOOOOOOOOOOOOOOOOOOOOOOOO   ",
"   OOOOOOOOOOOOOOOOOOOOOOOOOOOOOOOOOOOOOOOOOOOOOOOOOOOOOOOOOOOOOOOOOOOOOOOOOOOOOOOOOOOOOOOOOOOOOO   ",
"   OOOOOOOOOOOOOOOOOOOOOOOOOOOOOOOOOOOOOOOOOOOOOOOOOOOOOOOOOOOOOOOOOOOOOOOOOOOOOOOOOOOOOOOOOOOOOO   ",
"   OOOOOOOOOOOOOOOOOOOOOOOOOOOOOOOOOOOOOOOOOOOOOOOOOOOOOOOOOOOOOOOOOOOOOOOOOOOOOOOOOOOOOOOOOOOOOO   ",
"   OOOOOOOOOOOOOOOOOOOOOOOOOOOOOOOOOOOOOOOOOOOOOOOOOOOOOOOOOOOOOOOOOOOOOOOOOOOOOOOOOOOOOOOOOOOOOO   ",
"   OOOOOOOOOOOOOOOOOOOOOOOOOOOOOOOOOOOOOOOOOOOOOOOOOOOOOOOOOOOOOOOOOOOOOOOOOOOOOOOOOOOOOOOOOOOOOO   ",
"   OOOOOOOOOOOOOOOOOOOOOOOOOOOOOOOOOOOOOOOOOOOOOOOOOOOOOOOOOOOOOOOOOOOOOOOOOOOOOOOOOOOOOOOOOOOOOO   ",
"   OOOOOOOOOOOOOOOOOOOOOOOOOOOOOOOOOOOOOOOOOOOOOOOOOOOOOOOOOOOOOOOOOOOOOOOOOOOOOOOOOOOOOOOOOOOOOO   ",
"   OOOOOOOOOOOOOOOOOOOOOOOOOOOOOOOOOOOOOOOOOOOOOOOOOOOOOOOOOOOOOOOOOOOOOOOOOOOOOOOOOOOOOOOOOOOOOO   ",
"   OOOOOOOOOOOOOOOOOOOOOOOOOOOOOOOOOOOOOOOOOOOOOOOOOOOOOOOOOOOOOOOOOOOOOOOOOOOOOOOOOOOOOOOOOOOOOO   ",
"   OOOOOOOOOOOOOOOOOOOOOOOOOOOOOOOOOOOOOOOOOOOOOOOOOOOOOOOOOOOOOOOOOOOOOOOOOOOOOOOOOOOOOOOOOOOOOO   ",
"   OOOOOOOOOOOOOOOOOOOOOOOOOOOOOOOOOOOOOOOOOOOOOOOOOOOOOOOOOOOOOOOOOOOOOOOOOOOOOOOOOOOOOOOOOOOOOO   ",
"   OOOOOOOOOOOOOOOOOOOOOOOOOOOOOOOOOOOOOOOOOOOOOOoooooooOOOOOOOOOOOOOOOOOOOOOOOOOOOOOOOOOOOOOOOOO   ",
"   OOOOOOOOOOOOOOOOOOOOOOOOOOOOOOOOOOOOOOOoooooooooooooooooooOOOOOOOOOOOOOOOOOOOOOOOOOOOOOOOOOOOO   ",
"   OOOOOOOOOOOOOOOOOOOOOOOOOOOOOOOOOOOOoooooooooooooooooooooooooOOOOOOOOOOOOOOOOOOOOOOOOOOOOOOOOO   ",
"   OOOOOOOOOOOOOOOOOOOOOOOOOOOOOOOOOooooooooooooooooooooooooooooooOOOOOOOOOOOOOOOOOOOOOOOOOOOOOOO   ",
"   OOOOOOOOOOOOOOOOOOOOOOOOOOOOOOOoooooooooooooooooooooooooooooooooOOOOOOOOOOOOOOOOOOOOOOOOOOOOOO   ",
"   OOOOOOOOOOOOOOOOOOOOOOOOOOOOOoooooooooooooXXXX...XXXXXooooooooooooOOOOOOOOOOOOOOOOOOOOOOOOOOOO   ",
"   OOOOOOOOOOOOOOOOOOOOOOOOOOOOooooooooooXXXXXXXX...XXXXXXXXXooooooooooOOOOOOOOOOOOOOOOOOOOOOOOOO   ",
"   OOOOOOOOOOOOOOOOOOOOOOOOOOOoooooooooXXXXXXXXXX...XXXXXXXXXXXoooooooooOOOOOOOOOOOOOOOOOOOOOOOOO   ",
"   OOOOOOOOOOOOOOOOOOOOOOOOOOooooooooXXXXXXXXXXXX...XXXXXXXXXXXXXoooooooOOOOOOOOOOOOOOOOOOOOOOOOO   ",
"   OOOOOOOOOOOOOOOOOOOOOOOOOooooooooXXXXXXXXXXXXX...XXXXXXXXXXXXXXoooooooOOOOOOOOOOOOOOOOOOOOOOOO   ",
"   OOOOOOOOOOOOOOOOOOOOOOOOOoooooooXXXXXXXXXXXXXX...XXXXXXXXXXXXXXXoooooooOOOOOOOOOOOOOOOOOOOOOOO   ",
"   OOOOOOOOOOOOOOOOOOOOOOOOOooooooXXXXXXXXXXXXXXX...XXXXXXXXXXXXXXXXooooooOOOOOOOOOOOOOOOOOOOOOOO   ",
"   OOOOOOOOOOOOOOOOOOOOOOOOooooooXXXXXXXXXXXXXXXX...XXXXXXXXXXXXXXXXXooooooOOOOOOOOOOOOOOOOOOOOOO   ",
"   OOOOOOOOOOOOOOOOOOOOOOOooooooXXXXXXXXXXXXXXXXX...XXXXXXXXXXXXXXXXXXoooooOOOOOOOOOOOOOOOOOOOOOO   ",
"   OOOOOOOOOOOOOOOOOOOOOOOoooooXXXXXXXXXXXXXXXXXX...XXXXXXXXXXXXXXXXXXXooooOOOOOOOOOOOOOOOOOOOOOO   ",
"   OOOOOOOOOOOOOOOOOOOOOOOooooXXXXXXXXXXXXXXXXXXX...XXXXXXXXXXXXXXXXXXXXooooOOOOOOOOOOOOOOOOOOOOO   ",
"   OOOOOOOOOOOOOOOOOOOOOOOooooXXXXXXXXXXXXXXXXXXX...XXXXXXXXXXXXXXXXXXXXooooOOOOOOOOOOOOOOOOOOOOO   ",
"   OOOOOOOOOOOOOOOOOOOOOOooooXXXXXXXXXXXXXXXXXXXX...XXXXXXXXXXXXXXXXXXXXXooooOOOOOOOOOOOOOOOOOOOO   ",
"   OOOOOOOOOOOOOOOOOOOOOOooooXXXXXXXXXXXXXXXXXXXX...XXXXXXXXXXXXXXXXXXXXXooooOOOOOOOOOOOOOOOOOOOO   ",
"   OOOOOOOOOOOOOOOOOOOOOOoooXXXXXXXXXXXXXXXXXXXXX...XXXXXXXXXXXXXXXXXXXXXXoooOOOOOOOOOOOOOOOOOOOO   ",
"   OOOOOOOOOOOOOOOOOOOOOooooXXXXXXXXXXXXXXXXXXXXX...XXXXXXXXXXXXXXXXXXXXXXooooOOOOOOOOOOOOOOOOOOO   ",
"   OOOOOOOOOOOOOOOOOOOOOoooXXXXXXXXXXXXXXXXXXXXXX...XXXXXXXXXXXXXXXXXXXXXXXoooOOOOOOOOOOOOOOOOOOO   ",
"   OOOOOOOOOOOOOOOOOOOOOoooXXXXXXXXXXXXXXXXXXXXXX...XXXXXXXXXXXXXXXXXXXXXXXoooOOOOOOOOOOOOOOOOOOO   ",
"   OOOOOOOOOOOOOOOOOOOOOoooXXXXXXXXXXXXXXXXXXXXXX...XXXXX++++++++XXXXXXXXXXoooOOOOOOOOOOOOOOOOOOO   ",
"   OOOOOOOOOOOOOOOOOOOOOoooXXXXXXXXXXXXXXXXXXXXXX...XXXXX++++++++XXXXXXXXXXoooOOOOOOOOOOOOOOOOOOO   ",
"   OOOOOOOOOOOOOOOOOOOOOoooXXXXXXXXXXXXXXXXXXXXXX...XXXXX++++++++XXXXXXXXXXoooOOOOOOOOOOOOOOOOOOO   ",
"   OOOOOOOOOOOOOOOOOOOOOoooXXXXXXXXXXXXXXXXXXXXXX...XXXXX++++++++XXXXXXXXXXoooOOOOOOOOOOOOOOOOOOO   ",
"   OOOOOOOOOOOOOOOOOOOOOoooXXXXXXXXXXXXXXXXXXXXXX...XXXXX++++++++XXXXXXXXXXoooOOOOOOOOOOOOOOOOOOO   ",
"   OOOOOOOOOOOOOOOOOOOOOoooXXXXXXXXXXXXXXXXXXXXXX...XXXXX++++++++XXXXXXXXXXoooOOOOOOOOOOOOOOOOOOO   ",
"   OOOOOOOOOOOOOOOOOOOOOoooXXXXXXXXXXXXXXXXXXXXXX...XXXXX++++++++XXXXXXXXXXoooOOOOOOOOOOOOOOOOOOO   ",
"   OOOOOOOOOOOOOOOOOOOOOoooXXXXXXXXXXXXXXXXXXXXXX...XXXXX++++++++XXXXXXXXXXoooOOOOOOOOOOOOOOOOOOO   ",
"   OOOOOOOOOOOOOOOOOOOOOoooXXXXXXXXXXXXXXXXXXXXXX...XXXXXXXXXXXXXXXXXXXXXXXoooOOOOOOOOOOOOOOOOOOO   ",
"   OOOOOOOOOOOOOOOOOOOOOoooXXXXXXXXXXXXXXXXXXXXXX...XXXXXXXXXXXXXXXXXXXXXXXoooOOOOOOOOOOOOOOOOOOO   ",
"   OOOOOOOOOOOOOOOOOOOOOooooXXXXXXXXXXXXXXXXXXXXX...XXXXXXXXXXXXXXXXXXXXXXooooOOOOOOOOOOOOOOOOOOO   ",
"   OOOOOOOOOOOOOOOOOOOOOOoooXXXXXXXXXXXXXXXXXXXXX...XXXXXXXXXXXXXXXXXXXXXXoooOOOOOOOOOOOOOOOOOOOO   ",
"   OOOOOOOOOOOOOOOOOOOOOOooooXXXXXXXXXXXXXXXXXXXX...XXXXXXXXXXXXXXXXXXXXXooooOOOOOOOOOOOOOOOOOOOO   ",
"   OOOOOOOOOOOOOOOOOOOOOOooooXXXXXXXXXXXXXXXXXXXX...XXXXXXXXXXXXXXXXXXXXXooooOOOOOOOOOOOOOOOOOOOO   ",
"   OOOOOOOOOOOOOOOOOOOOOOOooooXXXXXXXXXXXXXXXXXXX...XXXXXXXXXXXXXXXXXXXXooooOOOOOOOOOOOOOOOOOOOOO   ",
"   OOOOOOOOOOOOOOOOOOOOOOOooooXXXXXXXXXXXXXXXXXXX...XXXXXXXXXXXXXXXXXXXXooooOOOOOOOOOOOOOOOOOOOOO   ",
"   OOOOOOOOOOOOOOOOOOOOOOOOooooXXXXXXXXXXXXXXXXXX...XXXXXXXXXXXXXXXXXXXooooOOOOOOOOOOOOOOOOOOOOOO   ",
"   OOOOOOOOOOOOOOOOOOOOOOOOoooooXXXXXXXXXXXXXXXXX...XXXXXXXXXXXXXXXXXXoooooOOOOOOOOOOOOOOOOOOOOOO   ",
"   OOOOOOOOOOOOOOOOOOOOOOOOOoooooXXXXXXXXXXXXXXXX...XXXXXXXXXXXXXXXXXoooooOOOOOOOOOOOOOOOOOOOOOOO   ",
"   OOOOOOOOOOOOOOOOOOOOOOOOOOoooooXXXXXXXXXXXXXXX...XXXXXXXXXXXXXXXXoooooOOOOOOOOOOOOOOOOOOOOOOOO   ",
"   OOOOOOOOOOOOOOOOOOOOOOOOOOOoooooXXXXXXXXXXXXXX...XXXXXXXXXXXXXXXoooooOOOOOOOOOOOOOOOOOOOOOOOOO   ",
"   OOOOOOOOOOOOOOOOOOOOOOOOOOOOoooooXXXXXXXXXXXXX...XXXXXXXXXXXXXXoooooOOOOOOOOOOOOOOOOOOOOOOOOOO   ",
"   OOOOOOOOOOOOOOOOOOOOOOOOOOOOOoooooXXXXXXXXXXXX...XXXXXXXXXXXXXoooooOOOOOOOOOOOOOOOOOOOOOOOOOOO   ",
"   OOOOOOOOOOOOOOOOOOOOOOOOOOOOOOooooooXXXXXXXXXX...XXXXXXXXXXXooooooOOOOOOOOOOOOOOOOOOOOOOOOOOOO   ",
"   OOOOOOOOOOOOOOOOOOOOOOOOOOOOOOOoooooooXXXXXXXX...XXXXXXXXXoooooooOOOOOOOOOOOOOOOOOOOOOOOOOOOOO   ",
"   OOOOOOOOOOOOOOOOOOOOOOOOOOOOOOOOOoooooooooXXXX...XXXXXoooooooooOOOOOOOOOOOOOOOOOOOOOOOOOOOOOOO   ",
"   OOOOOOOOOOOOOOOOOOOOOOOOOOOOOOOOOOOooooooooooooooooooooooooooOOOOOOOOOOOOOOOOOOOOOOOOOOOOOOOOO   ",
"   OOOOOOOOOOOOOOOOOOOOOOOOOOOOOOOOOOOOOooooooooooooooooooooooOOOOOOOOOOOOOOOOOOOOOOOOOOOOOOOOOOO   ",
"   OOOOOOOOOOOOOOOOOOOOOOOOOOOOOOOOOOOOOOOOooooooooooooooooOOOOOOOOOOOOOOOOOOOOOOOOOOOOOOOOOOOOOO   ",
"   OOOOOOOOOOOOOOOOOOOOOOOOOOOOOOOOOOOOOOOOOOOOOOOOOOOOOOOOOOOOOOOOOOOOOOOOOOOOOOOOOOOOOOOOOOOOOO   ",
"   OOOOOOOOOOOOOOOOOOOOOOOOOOOOOOOOOOOOOOOOOOOOOOOOOOOOOOOOOOOOOOOOOOOOOOOOOOOOOOOOOOOOOOOOOOOOOO   ",
"   OOOOOOOOOOOOOOOOOOOOOOOOOOOOOOOOOOOOOOOOOOOOOOOOOOOOOOOOOOOOOOOOOOOOOOOOOOOOOOOOOOOOOOOOOOOOOO   ",
"   OOOOOOOOOOOOOOOOOOOOOOOOOOOOOOOOOOOOOOOOOOOOOOOOOOOOOOOOOOOOOOOOOOOOOOOOOOOOOOOOOOOOOOOOOOOOOO   ",
"   OOOOOOOOOOOOOOOOOOOOOOOOOOOOOOOOOOOOOOOOOOOOOOOOOOOOOOOOOOOOOOOOOOOOOOOOOOOOOOOOOOOOOOOOOOOOOO   ",
"   OOOOOOOOOOOOOOOOOOOOOOOOOOOOOOOOOOOOOOOOOOOOOOOOOOOOOOOOOOOOOOOOOOOOOOOOOOOOOOOOOOOOOOOOOOOOOO   ",
"   OOOOOOOOOOOOOOOOOOOOOOOOOOOOOOOOOOOOOOOOOOOOOOOOOOOOOOOOOOOOOOOOOOOOOOOOOOOOOOOOOOOOOOOOOOOOOO   ",
"   OOOOOOOOOOOOOOOOOOOOOOOOOOOOOOOOOOOOOOOOOOOOOOOOOOOOOOOOOOOOOOOOOOOOOOOOOOOOOOOOOOOOOOOOOOOOOO   ",
"   OOOOOOOOOOOOOOOOOOOOOOOOOOOOOOOOOOOOOOOOOOOOOOOOOOOOOOOOOOOOOOOOOOOOOOOOOOOOOOOOOOOOOOOOOOOOOO   ",
"   OOOOOOOOOOOOOOOOOOOOOOOOOOOOOOOOOOOOOOOOOOOOOOOOOOOOOOOOOOOOOOOOOOOOOOOOOOOOOOOOOOOOOOOOOOOOOO   ",
"   OOOOOOOOOOOOOOOOOOOOOOOOOOOOOOOOOOOOOOOOOOOOOOOOOOOOOOOOOOOOOOOOOOOOOOOOOOOOOOOOOOOOOOOOOOOOOO   ",
"   OOOOOOOOOOOOOOOOOOOOOOOOOOOOOOOOOOOOOOOOOOOOOOOOOOOOOOOOOOOOOOOOOOOOOOOOOOOOOOOOOOOOOOOOOOOOOO   ",
"   OOOOOOOOOOOOOOOOOOOOOOOOOOOOOOOOOOOOOOOOOOOOOOOOOOOOOOOOOOOOOOOOOOOOOOOOOOOOOOOOOOOOOOOOOOOOOO   ",
"   OOOOOOOOOOOOOOOOOOOOOOOOOOOOOOOOOOOOOOOOOOOOOOOOOOOOOOOOOOOOOOOOOOOOOOOOOOOOOOOOOOOOOOOOOOOOOO   ",
"   OOOOOOOOOOOOOOOOOOOOOOOOOOOOOOOOOOOOOOOOOOOOOOOOOOOOOOOOOOOOOOOOOOOOOOOOOOOOOOOOOOOOOOOOOOOOOO   ",
"   OOOOOOOOOOOOOOOOOOOOOOOOOOOOOOOOOOOOOOOOOOOOOOOOOOOOOOOOOOOOOOOOOOOOOOOOOOOOOOOOOOOOOOOOOOOOOO   ",
"   OOOOOOOOOOOOOOOOOOOOOOOOOOOOOOOOOOOOOOOOOOOOOOOOOOOOOOOOOOOOOOOOOOOOOOOOOOOOOOOOOOOOOOOOOOOOOO   ",
"   OOOOOOOOOOOOOOOOOOOOOOOOOOOOOOOOOOOOOOOOOOOOOOOOOOOOOOOOOOOOOOOOOOOOOOOOOOOOOOOOOOOOOOOOOOOOOO   ",
"   OOOOOOOOOOOOOOOOOOOOOOOOOOOOOOOOOOOOOOOOOOOOOOOOOOOOOOOOOOOOOOOOOOOOOOOOOOOOOOOOOOOOOOOOOOOOOO   ",
"   OOOOOOOOOOOOOOOOOOOOOOOOOOOOOOOOOOOOOOOOOOOOOOOOOOOOOOOOOOOOOOOOOOOOOOOOOOOOOOOOOOOOOOOOOOOOOO   ",
"   OOOOOOOOOOOOOOOOOOOOOOOOOOOOOOOOOOOOOOOOOOOOOOOOOOOOOOOOOOOOOOOOOOOOOOOOOOOOOOOOOOOOOOOOOOOOOO   ",
"                                                                                                    ",
"                                                                                                    ",
"                                                                                                    "
};
